<mxfile host="app.diagrams.net" agent="Mozilla/5.0 (Windows NT 10.0; Win64; x64) AppleWebKit/537.36 (KHTML, like Gecko) Chrome/135.0.0.0 Safari/537.36" version="26.2.12">
  <diagram name="Сторінка-1" id="uincUndEkX85UCSsuGMe">
    <mxGraphModel dx="1182" dy="630" grid="1" gridSize="10" guides="1" tooltips="1" connect="1" arrows="1" fold="1" page="1" pageScale="1" pageWidth="827" pageHeight="1169" math="0" shadow="0">
      <root>
        <mxCell id="0" />
        <mxCell id="1" parent="0" />
        <mxCell id="JqNVo3zSPwYu4FSMT3gH-33" style="rounded=0;orthogonalLoop=1;jettySize=auto;html=1;entryX=0;entryY=0.5;entryDx=0;entryDy=0;dashed=1;endArrow=open;endFill=0;exitX=1;exitY=0;exitDx=0;exitDy=0;" edge="1" parent="1" source="JqNVo3zSPwYu4FSMT3gH-26" target="JqNVo3zSPwYu4FSMT3gH-15">
          <mxGeometry relative="1" as="geometry">
            <mxPoint x="632.5" y="320" as="sourcePoint" />
          </mxGeometry>
        </mxCell>
        <mxCell id="JqNVo3zSPwYu4FSMT3gH-15" value="CreateAccount" style="ellipse;whiteSpace=wrap;html=1;fillColor=#f5f5f5;fontColor=#333333;strokeColor=#666666;" vertex="1" parent="1">
          <mxGeometry x="690" y="330" width="90" height="35" as="geometry" />
        </mxCell>
        <mxCell id="JqNVo3zSPwYu4FSMT3gH-32" style="edgeStyle=orthogonalEdgeStyle;rounded=0;orthogonalLoop=1;jettySize=auto;html=1;entryX=0;entryY=0.5;entryDx=0;entryDy=0;dashed=1;endArrow=open;endFill=0;exitX=1;exitY=0.5;exitDx=0;exitDy=0;" edge="1" parent="1" source="JqNVo3zSPwYu4FSMT3gH-26" target="JqNVo3zSPwYu4FSMT3gH-16">
          <mxGeometry relative="1" as="geometry">
            <mxPoint x="682.5" y="380" as="sourcePoint" />
          </mxGeometry>
        </mxCell>
        <mxCell id="JqNVo3zSPwYu4FSMT3gH-16" value="EditAccount" style="ellipse;whiteSpace=wrap;html=1;fillColor=#f5f5f5;fontColor=#333333;strokeColor=#666666;" vertex="1" parent="1">
          <mxGeometry x="690" y="382.5" width="90" height="35" as="geometry" />
        </mxCell>
        <mxCell id="JqNVo3zSPwYu4FSMT3gH-34" style="rounded=0;orthogonalLoop=1;jettySize=auto;html=1;entryX=0;entryY=0.5;entryDx=0;entryDy=0;dashed=1;endArrow=open;endFill=0;exitX=1;exitY=1;exitDx=0;exitDy=0;" edge="1" parent="1" source="JqNVo3zSPwYu4FSMT3gH-26" target="JqNVo3zSPwYu4FSMT3gH-17">
          <mxGeometry relative="1" as="geometry">
            <mxPoint x="642.5" y="414" as="sourcePoint" />
          </mxGeometry>
        </mxCell>
        <mxCell id="JqNVo3zSPwYu4FSMT3gH-17" value="DeleteAccount" style="ellipse;whiteSpace=wrap;html=1;fillColor=#f5f5f5;fontColor=#333333;strokeColor=#666666;" vertex="1" parent="1">
          <mxGeometry x="690" y="432.5" width="90" height="35" as="geometry" />
        </mxCell>
        <mxCell id="JqNVo3zSPwYu4FSMT3gH-78" style="rounded=0;orthogonalLoop=1;jettySize=auto;html=1;entryX=0.5;entryY=1;entryDx=0;entryDy=0;dashed=1;endArrow=open;endFill=0;exitX=0;exitY=0;exitDx=0;exitDy=0;" edge="1" parent="1" source="JqNVo3zSPwYu4FSMT3gH-24" target="JqNVo3zSPwYu4FSMT3gH-18">
          <mxGeometry relative="1" as="geometry">
            <mxPoint x="380" y="237.5" as="sourcePoint" />
          </mxGeometry>
        </mxCell>
        <mxCell id="JqNVo3zSPwYu4FSMT3gH-18" value="CreateProject" style="ellipse;whiteSpace=wrap;html=1;fillColor=#f5f5f5;fontColor=#333333;strokeColor=#666666;" vertex="1" parent="1">
          <mxGeometry x="267.5" y="190" width="90" height="35" as="geometry" />
        </mxCell>
        <mxCell id="JqNVo3zSPwYu4FSMT3gH-79" style="rounded=0;orthogonalLoop=1;jettySize=auto;html=1;entryX=0.5;entryY=1;entryDx=0;entryDy=0;dashed=1;endArrow=open;endFill=0;exitX=0.5;exitY=0;exitDx=0;exitDy=0;" edge="1" parent="1" source="JqNVo3zSPwYu4FSMT3gH-24" target="JqNVo3zSPwYu4FSMT3gH-19">
          <mxGeometry relative="1" as="geometry">
            <mxPoint x="380" y="247.5" as="sourcePoint" />
          </mxGeometry>
        </mxCell>
        <mxCell id="JqNVo3zSPwYu4FSMT3gH-19" value="EditProject" style="ellipse;whiteSpace=wrap;html=1;fillColor=#f5f5f5;fontColor=#333333;strokeColor=#666666;" vertex="1" parent="1">
          <mxGeometry x="367.5" y="190" width="90" height="35" as="geometry" />
        </mxCell>
        <mxCell id="JqNVo3zSPwYu4FSMT3gH-80" style="rounded=0;orthogonalLoop=1;jettySize=auto;html=1;entryX=0.5;entryY=1;entryDx=0;entryDy=0;dashed=1;endArrow=open;endFill=0;exitX=1;exitY=0;exitDx=0;exitDy=0;" edge="1" parent="1" source="JqNVo3zSPwYu4FSMT3gH-24" target="JqNVo3zSPwYu4FSMT3gH-20">
          <mxGeometry relative="1" as="geometry">
            <mxPoint x="520" y="317.5" as="sourcePoint" />
          </mxGeometry>
        </mxCell>
        <mxCell id="JqNVo3zSPwYu4FSMT3gH-20" value="DeleteProject" style="ellipse;whiteSpace=wrap;html=1;fillColor=#f5f5f5;strokeColor=#666666;fontColor=#333333;" vertex="1" parent="1">
          <mxGeometry x="467.5" y="190" width="90" height="35" as="geometry" />
        </mxCell>
        <mxCell id="JqNVo3zSPwYu4FSMT3gH-29" style="rounded=0;orthogonalLoop=1;jettySize=auto;html=1;exitX=0;exitY=0;exitDx=0;exitDy=0;dashed=1;endArrow=open;endFill=0;entryX=1;entryY=0.5;entryDx=0;entryDy=0;" edge="1" parent="1" source="JqNVo3zSPwYu4FSMT3gH-27" target="JqNVo3zSPwYu4FSMT3gH-21">
          <mxGeometry relative="1" as="geometry">
            <mxPoint x="210" y="312.5" as="targetPoint" />
          </mxGeometry>
        </mxCell>
        <mxCell id="JqNVo3zSPwYu4FSMT3gH-21" value="CreateTask" style="ellipse;whiteSpace=wrap;html=1;fillColor=#f5f5f5;fontColor=#333333;strokeColor=#666666;" vertex="1" parent="1">
          <mxGeometry x="42.5" y="332.5" width="90" height="35" as="geometry" />
        </mxCell>
        <mxCell id="JqNVo3zSPwYu4FSMT3gH-30" style="edgeStyle=orthogonalEdgeStyle;rounded=0;orthogonalLoop=1;jettySize=auto;html=1;entryX=1;entryY=0.5;entryDx=0;entryDy=0;dashed=1;endArrow=open;endFill=0;exitX=0;exitY=0.5;exitDx=0;exitDy=0;" edge="1" parent="1" source="JqNVo3zSPwYu4FSMT3gH-27" target="JqNVo3zSPwYu4FSMT3gH-22">
          <mxGeometry relative="1" as="geometry">
            <mxPoint x="160" y="382.5" as="sourcePoint" />
          </mxGeometry>
        </mxCell>
        <mxCell id="JqNVo3zSPwYu4FSMT3gH-22" value="EditTast" style="ellipse;whiteSpace=wrap;html=1;fillColor=#f5f5f5;fontColor=#333333;strokeColor=#666666;" vertex="1" parent="1">
          <mxGeometry x="42.5" y="382.5" width="90" height="35" as="geometry" />
        </mxCell>
        <mxCell id="JqNVo3zSPwYu4FSMT3gH-31" style="rounded=0;orthogonalLoop=1;jettySize=auto;html=1;exitX=0;exitY=1;exitDx=0;exitDy=0;dashed=1;endArrow=open;endFill=0;entryX=1;entryY=0.5;entryDx=0;entryDy=0;" edge="1" parent="1" source="JqNVo3zSPwYu4FSMT3gH-27" target="JqNVo3zSPwYu4FSMT3gH-23">
          <mxGeometry relative="1" as="geometry">
            <mxPoint x="200" y="462.5" as="targetPoint" />
          </mxGeometry>
        </mxCell>
        <mxCell id="JqNVo3zSPwYu4FSMT3gH-23" value="DeleteTask" style="ellipse;whiteSpace=wrap;html=1;fillColor=#f5f5f5;fontColor=#333333;strokeColor=#666666;" vertex="1" parent="1">
          <mxGeometry x="42.5" y="432.5" width="90" height="35" as="geometry" />
        </mxCell>
        <mxCell id="JqNVo3zSPwYu4FSMT3gH-24" value="ProjectManage" style="ellipse;whiteSpace=wrap;html=1;fillColor=#f5f5f5;fontColor=#333333;strokeColor=#666666;" vertex="1" parent="1">
          <mxGeometry x="350" y="270" width="125" height="40" as="geometry" />
        </mxCell>
        <mxCell id="JqNVo3zSPwYu4FSMT3gH-26" value="AccountManage" style="ellipse;whiteSpace=wrap;html=1;fillColor=#f5f5f5;fontColor=#333333;strokeColor=#666666;" vertex="1" parent="1">
          <mxGeometry x="500" y="380" width="130" height="40" as="geometry" />
        </mxCell>
        <mxCell id="JqNVo3zSPwYu4FSMT3gH-27" value="TaskManage" style="ellipse;whiteSpace=wrap;html=1;fillColor=#f5f5f5;fontColor=#333333;strokeColor=#666666;" vertex="1" parent="1">
          <mxGeometry x="192.5" y="380" width="130" height="40" as="geometry" />
        </mxCell>
        <mxCell id="JqNVo3zSPwYu4FSMT3gH-43" value="extends" style="text;html=1;align=center;verticalAlign=middle;whiteSpace=wrap;rounded=0;fontSize=9;fontColor=#2A2A2A;" vertex="1" parent="1">
          <mxGeometry x="602.5" y="350" width="70" height="20" as="geometry" />
        </mxCell>
        <mxCell id="JqNVo3zSPwYu4FSMT3gH-44" value="extends" style="text;html=1;align=center;verticalAlign=middle;whiteSpace=wrap;rounded=0;fontSize=9;fontColor=#2A2A2A;" vertex="1" parent="1">
          <mxGeometry x="620" y="382.5" width="70" height="20" as="geometry" />
        </mxCell>
        <mxCell id="JqNVo3zSPwYu4FSMT3gH-45" value="extends" style="text;html=1;align=center;verticalAlign=middle;whiteSpace=wrap;rounded=0;fontSize=9;fontColor=#2A2A2A;" vertex="1" parent="1">
          <mxGeometry x="602.5" y="430" width="70" height="20" as="geometry" />
        </mxCell>
        <mxCell id="JqNVo3zSPwYu4FSMT3gH-46" value="extends" style="text;html=1;align=center;verticalAlign=middle;whiteSpace=wrap;rounded=0;fontSize=9;fontColor=#2A2A2A;" vertex="1" parent="1">
          <mxGeometry x="287.5" y="247.5" width="70" height="20" as="geometry" />
        </mxCell>
        <mxCell id="JqNVo3zSPwYu4FSMT3gH-47" value="extends" style="text;html=1;align=center;verticalAlign=middle;whiteSpace=wrap;rounded=0;fontSize=9;fontColor=#2A2A2A;" vertex="1" parent="1">
          <mxGeometry x="397.5" y="237.5" width="70" height="20" as="geometry" />
        </mxCell>
        <mxCell id="JqNVo3zSPwYu4FSMT3gH-48" value="extends" style="text;html=1;align=center;verticalAlign=middle;whiteSpace=wrap;rounded=0;fontSize=9;fontColor=#2A2A2A;" vertex="1" parent="1">
          <mxGeometry x="467.5" y="247.5" width="70" height="20" as="geometry" />
        </mxCell>
        <mxCell id="JqNVo3zSPwYu4FSMT3gH-49" value="extends" style="text;html=1;align=center;verticalAlign=middle;whiteSpace=wrap;rounded=0;fontSize=9;fontColor=#2A2A2A;" vertex="1" parent="1">
          <mxGeometry x="150" y="347.5" width="70" height="20" as="geometry" />
        </mxCell>
        <mxCell id="JqNVo3zSPwYu4FSMT3gH-50" value="extends" style="text;html=1;align=center;verticalAlign=middle;whiteSpace=wrap;rounded=0;fontSize=9;fontColor=#2A2A2A;" vertex="1" parent="1">
          <mxGeometry x="132.5" y="382.5" width="70" height="20" as="geometry" />
        </mxCell>
        <mxCell id="JqNVo3zSPwYu4FSMT3gH-51" value="extends" style="text;html=1;align=center;verticalAlign=middle;whiteSpace=wrap;rounded=0;fontSize=9;fontColor=#2A2A2A;" vertex="1" parent="1">
          <mxGeometry x="150" y="432.5" width="70" height="20" as="geometry" />
        </mxCell>
        <mxCell id="JqNVo3zSPwYu4FSMT3gH-63" value="AddMembers" style="ellipse;whiteSpace=wrap;html=1;fillColor=#f5f5f5;fontColor=#333333;strokeColor=#666666;" vertex="1" parent="1">
          <mxGeometry x="672.5" y="625" width="90" height="35" as="geometry" />
        </mxCell>
        <mxCell id="JqNVo3zSPwYu4FSMT3gH-92" style="rounded=0;orthogonalLoop=1;jettySize=auto;html=1;exitX=0.225;exitY=0.914;exitDx=0;exitDy=0;entryX=0.5;entryY=0;entryDx=0;entryDy=0;dashed=1;endArrow=open;endFill=0;exitPerimeter=0;" edge="1" parent="1" source="JqNVo3zSPwYu4FSMT3gH-64" target="JqNVo3zSPwYu4FSMT3gH-66">
          <mxGeometry relative="1" as="geometry" />
        </mxCell>
        <mxCell id="JqNVo3zSPwYu4FSMT3gH-93" style="rounded=0;orthogonalLoop=1;jettySize=auto;html=1;exitX=0.686;exitY=0.943;exitDx=0;exitDy=0;entryX=0.5;entryY=0;entryDx=0;entryDy=0;dashed=1;endArrow=open;endFill=0;exitPerimeter=0;" edge="1" parent="1" source="JqNVo3zSPwYu4FSMT3gH-64" target="JqNVo3zSPwYu4FSMT3gH-65">
          <mxGeometry relative="1" as="geometry" />
        </mxCell>
        <mxCell id="JqNVo3zSPwYu4FSMT3gH-94" style="rounded=0;orthogonalLoop=1;jettySize=auto;html=1;exitX=0.951;exitY=0.657;exitDx=0;exitDy=0;entryX=0.5;entryY=0;entryDx=0;entryDy=0;dashed=1;endArrow=open;endFill=0;exitPerimeter=0;" edge="1" parent="1" source="JqNVo3zSPwYu4FSMT3gH-64" target="JqNVo3zSPwYu4FSMT3gH-63">
          <mxGeometry relative="1" as="geometry" />
        </mxCell>
        <mxCell id="JqNVo3zSPwYu4FSMT3gH-64" value="TeamManage" style="ellipse;whiteSpace=wrap;html=1;fillColor=#f5f5f5;fontColor=#333333;strokeColor=#666666;" vertex="1" parent="1">
          <mxGeometry x="422.5" y="530" width="125" height="40" as="geometry" />
        </mxCell>
        <mxCell id="JqNVo3zSPwYu4FSMT3gH-65" value="EditMemberPermissions" style="ellipse;whiteSpace=wrap;html=1;fillColor=#f5f5f5;fontColor=#333333;strokeColor=#666666;" vertex="1" parent="1">
          <mxGeometry x="492.5" y="625" width="170" height="35" as="geometry" />
        </mxCell>
        <mxCell id="JqNVo3zSPwYu4FSMT3gH-66" value="RemoveMembers" style="ellipse;whiteSpace=wrap;html=1;fillColor=#f5f5f5;fontColor=#333333;strokeColor=#666666;" vertex="1" parent="1">
          <mxGeometry x="367.5" y="625" width="115" height="35" as="geometry" />
        </mxCell>
        <mxCell id="JqNVo3zSPwYu4FSMT3gH-70" value="extends" style="text;html=1;align=center;verticalAlign=middle;whiteSpace=wrap;rounded=0;fontSize=9;fontColor=#2A2A2A;" vertex="1" parent="1">
          <mxGeometry x="572" y="558" width="70" height="20" as="geometry" />
        </mxCell>
        <mxCell id="JqNVo3zSPwYu4FSMT3gH-71" value="extends" style="text;html=1;align=center;verticalAlign=middle;whiteSpace=wrap;rounded=0;fontSize=9;fontColor=#2A2A2A;" vertex="1" parent="1">
          <mxGeometry x="520" y="575" width="70" height="20" as="geometry" />
        </mxCell>
        <mxCell id="JqNVo3zSPwYu4FSMT3gH-72" value="extends" style="text;html=1;align=center;verticalAlign=middle;whiteSpace=wrap;rounded=0;fontSize=9;fontColor=#2A2A2A;" vertex="1" parent="1">
          <mxGeometry x="429" y="576" width="70" height="20" as="geometry" />
        </mxCell>
        <mxCell id="JqNVo3zSPwYu4FSMT3gH-81" style="edgeStyle=orthogonalEdgeStyle;rounded=0;orthogonalLoop=1;jettySize=auto;html=1;entryX=1;entryY=0.5;entryDx=0;entryDy=0;" edge="1" parent="1" source="JqNVo3zSPwYu4FSMT3gH-74" target="JqNVo3zSPwYu4FSMT3gH-27">
          <mxGeometry relative="1" as="geometry" />
        </mxCell>
        <mxCell id="JqNVo3zSPwYu4FSMT3gH-82" style="edgeStyle=orthogonalEdgeStyle;rounded=0;orthogonalLoop=1;jettySize=auto;html=1;entryX=0;entryY=0.5;entryDx=0;entryDy=0;" edge="1" parent="1" source="JqNVo3zSPwYu4FSMT3gH-74" target="JqNVo3zSPwYu4FSMT3gH-26">
          <mxGeometry relative="1" as="geometry" />
        </mxCell>
        <mxCell id="JqNVo3zSPwYu4FSMT3gH-83" style="edgeStyle=orthogonalEdgeStyle;rounded=0;orthogonalLoop=1;jettySize=auto;html=1;entryX=0.5;entryY=1;entryDx=0;entryDy=0;" edge="1" parent="1" source="JqNVo3zSPwYu4FSMT3gH-74" target="JqNVo3zSPwYu4FSMT3gH-24">
          <mxGeometry relative="1" as="geometry" />
        </mxCell>
        <mxCell id="JqNVo3zSPwYu4FSMT3gH-74" value="Користувач" style="shape=umlActor;verticalLabelPosition=bottom;verticalAlign=top;html=1;" vertex="1" parent="1">
          <mxGeometry x="397.5" y="370" width="30" height="60" as="geometry" />
        </mxCell>
        <mxCell id="JqNVo3zSPwYu4FSMT3gH-88" style="rounded=0;orthogonalLoop=1;jettySize=auto;html=1;entryX=0;entryY=0.5;entryDx=0;entryDy=0;" edge="1" parent="1" source="JqNVo3zSPwYu4FSMT3gH-84" target="JqNVo3zSPwYu4FSMT3gH-64">
          <mxGeometry relative="1" as="geometry" />
        </mxCell>
        <mxCell id="JqNVo3zSPwYu4FSMT3gH-89" style="rounded=0;orthogonalLoop=1;jettySize=auto;html=1;dashed=1;endArrow=open;endFill=0;" edge="1" parent="1" source="JqNVo3zSPwYu4FSMT3gH-84" target="JqNVo3zSPwYu4FSMT3gH-74">
          <mxGeometry relative="1" as="geometry">
            <mxPoint x="370" y="430" as="targetPoint" />
          </mxGeometry>
        </mxCell>
        <mxCell id="JqNVo3zSPwYu4FSMT3gH-84" value="Адміністратор" style="shape=umlActor;verticalLabelPosition=bottom;verticalAlign=top;html=1;align=center;" vertex="1" parent="1">
          <mxGeometry x="250" y="520" width="30" height="60" as="geometry" />
        </mxCell>
        <mxCell id="JqNVo3zSPwYu4FSMT3gH-91" value="extends" style="text;html=1;align=center;verticalAlign=middle;whiteSpace=wrap;rounded=0;fontSize=9;fontColor=#2A2A2A;" vertex="1" parent="1">
          <mxGeometry x="268.5" y="476" width="70" height="20" as="geometry" />
        </mxCell>
      </root>
    </mxGraphModel>
  </diagram>
</mxfile>
